<?xml version="1.0" encoding="utf-8"?>
<svg width="auto" height="12520" style="overflow:visible " version="1.1" xmlns="http://www.w3.org/2000/svg">
<rect x="20" y="20" width="200" height="40" style="fill:white;stroke:black;stroke-width:1" />
<text x="30" y="30" font-size="10" style="fill:blue">persona</text>
<text x="30" y="40" font-size="8" style="fill:black">nombre: Mateo</text>
<text x="30" y="50" font-size="8" style="fill:black">apellidos: Rico Iglesias</text>
<rect x="240" y="20" width="200" height="40" style="fill:white;stroke:black;stroke-width:1" />
<text x="250" y="30" font-size="10" style="fill:blue">data</text>
<rect x="460" y="20" width="200" height="40" style="fill:white;stroke:black;stroke-width:1" />
<text x="470" y="30" font-size="10" style="fill:blue">bornDate</text>
<rect x="526" y="20" width="137" height="40" style="fill:green;stroke:black;stroke-width:1" />
<text x="536" y="30" font-size="8" style="fill:white">2001-06-26</text>
<rect x="460" y="70" width="200" height="40" style="fill:white;stroke:black;stroke-width:1" />
<text x="470" y="80" font-size="10" style="fill:blue">bornPlace</text>
<rect x="526" y="70" width="137" height="40" style="fill:green;stroke:black;stroke-width:1" />
<text x="536" y="80" font-size="8" style="fill:white">Luarca</text>
<rect x="460" y="120" width="200" height="40" style="fill:white;stroke:black;stroke-width:1" />
<text x="470" y="130" font-size="10" style="fill:blue">bornCoords</text>
<rect x="526" y="120" width="137" height="40" style="fill:green;stroke:black;stroke-width:1" />
<text x="536" y="130" font-size="8" style="fill:white">-6.535092272806634, 43.54346143884969, 0.</text>
<rect x="460" y="170" width="200" height="40" style="fill:white;stroke:black;stroke-width:1" />
<text x="470" y="180" font-size="10" style="fill:blue">from</text>
<rect x="526" y="170" width="137" height="40" style="fill:green;stroke:black;stroke-width:1" />
<text x="536" y="180" font-size="8" style="fill:white">Luarca</text>
<rect x="460" y="220" width="200" height="40" style="fill:white;stroke:black;stroke-width:1" />
<text x="470" y="230" font-size="10" style="fill:blue">fromCoords</text>
<rect x="526" y="220" width="137" height="40" style="fill:green;stroke:black;stroke-width:1" />
<text x="536" y="230" font-size="8" style="fill:white">-6.535092272806634, 43.54346143884969, 0.</text>
<rect x="460" y="270" width="200" height="40" style="fill:white;stroke:black;stroke-width:1" />
<text x="470" y="280" font-size="10" style="fill:blue">photos</text>
<rect x="526" y="270" width="137" height="40" style="fill:green;stroke:black;stroke-width:1" />
<text x="536" y="280" font-size="8" style="fill:white">1.jpg
</text>
<rect x="460" y="320" width="200" height="40" style="fill:white;stroke:black;stroke-width:1" />
<text x="470" y="330" font-size="10" style="fill:blue">videos</text>
<rect x="526" y="320" width="137" height="40" style="fill:green;stroke:black;stroke-width:1" />
<text x="536" y="330" font-size="8" style="fill:white"></text>
<rect x="460" y="370" width="200" height="40" style="fill:white;stroke:black;stroke-width:1" />
<text x="470" y="380" font-size="10" style="fill:blue">comments</text>
<rect x="526" y="370" width="137" height="40" style="fill:green;stroke:black;stroke-width:1" />
<text x="536" y="380" font-size="8" style="fill:white"></text>
<rect x="120" y="470" width="200" height="40" style="fill:white;stroke:black;stroke-width:1" />
<text x="130" y="480" font-size="10" style="fill:blue">persona</text>
<text x="130" y="490" font-size="8" style="fill:black">nombre: Luis</text>
<text x="130" y="500" font-size="8" style="fill:black">apellidos: Lopez Garcia</text>
<rect x="340" y="470" width="200" height="40" style="fill:white;stroke:black;stroke-width:1" />
<text x="350" y="480" font-size="10" style="fill:blue">data</text>
<rect x="560" y="470" width="200" height="40" style="fill:white;stroke:black;stroke-width:1" />
<text x="570" y="480" font-size="10" style="fill:blue">bornDate</text>
<rect x="626" y="470" width="137" height="40" style="fill:green;stroke:black;stroke-width:1" />
<text x="636" y="480" font-size="8" style="fill:white">2003-12-24</text>
<rect x="560" y="520" width="200" height="40" style="fill:white;stroke:black;stroke-width:1" />
<text x="570" y="530" font-size="10" style="fill:blue">bornPlace</text>
<rect x="626" y="520" width="137" height="40" style="fill:green;stroke:black;stroke-width:1" />
<text x="636" y="530" font-size="8" style="fill:white">Oviedo</text>
<rect x="560" y="570" width="200" height="40" style="fill:white;stroke:black;stroke-width:1" />
<text x="570" y="580" font-size="10" style="fill:blue">bornCoords</text>
<rect x="626" y="570" width="137" height="40" style="fill:green;stroke:black;stroke-width:1" />
<text x="636" y="580" font-size="8" style="fill:white">-5.848486559535893, 43.36586255897024, 0.</text>
<rect x="560" y="620" width="200" height="40" style="fill:white;stroke:black;stroke-width:1" />
<text x="570" y="630" font-size="10" style="fill:blue">from</text>
<rect x="626" y="620" width="137" height="40" style="fill:green;stroke:black;stroke-width:1" />
<text x="636" y="630" font-size="8" style="fill:white">Oviedo</text>
<rect x="560" y="670" width="200" height="40" style="fill:white;stroke:black;stroke-width:1" />
<text x="570" y="680" font-size="10" style="fill:blue">fromCoords</text>
<rect x="626" y="670" width="137" height="40" style="fill:green;stroke:black;stroke-width:1" />
<text x="636" y="680" font-size="8" style="fill:white">-5.848486559535893, 43.36586255897024, 0.</text>
<rect x="560" y="720" width="200" height="40" style="fill:white;stroke:black;stroke-width:1" />
<text x="570" y="730" font-size="10" style="fill:blue">photos</text>
<rect x="626" y="720" width="137" height="40" style="fill:green;stroke:black;stroke-width:1" />
<text x="636" y="730" font-size="8" style="fill:white">2.jpg
</text>
<rect x="560" y="770" width="200" height="40" style="fill:white;stroke:black;stroke-width:1" />
<text x="570" y="780" font-size="10" style="fill:blue">videos</text>
<rect x="626" y="770" width="137" height="40" style="fill:green;stroke:black;stroke-width:1" />
<text x="636" y="780" font-size="8" style="fill:white"></text>
<rect x="560" y="820" width="200" height="40" style="fill:white;stroke:black;stroke-width:1" />
<text x="570" y="830" font-size="10" style="fill:blue">comments</text>
<rect x="626" y="820" width="137" height="40" style="fill:green;stroke:black;stroke-width:1" />
<text x="636" y="830" font-size="8" style="fill:white">Hola me llamo Luis
</text>
<rect x="220" y="920" width="200" height="40" style="fill:white;stroke:black;stroke-width:1" />
<text x="230" y="930" font-size="10" style="fill:blue">persona</text>
<text x="230" y="940" font-size="8" style="fill:black">nombre: Benemérito</text>
<text x="230" y="950" font-size="8" style="fill:black">apellidos: Anacleto Piernavieja</text>
<rect x="440" y="920" width="200" height="40" style="fill:white;stroke:black;stroke-width:1" />
<text x="450" y="930" font-size="10" style="fill:blue">data</text>
<rect x="660" y="920" width="200" height="40" style="fill:white;stroke:black;stroke-width:1" />
<text x="670" y="930" font-size="10" style="fill:blue">bornDate</text>
<rect x="726" y="920" width="137" height="40" style="fill:green;stroke:black;stroke-width:1" />
<text x="736" y="930" font-size="8" style="fill:white">2011-11-22</text>
<rect x="660" y="970" width="200" height="40" style="fill:white;stroke:black;stroke-width:1" />
<text x="670" y="980" font-size="10" style="fill:blue">bornPlace</text>
<rect x="726" y="970" width="137" height="40" style="fill:green;stroke:black;stroke-width:1" />
<text x="736" y="980" font-size="8" style="fill:white">Cangas de Narcea</text>
<rect x="660" y="1020" width="200" height="40" style="fill:white;stroke:black;stroke-width:1" />
<text x="670" y="1030" font-size="10" style="fill:blue">bornCoords</text>
<rect x="726" y="1020" width="137" height="40" style="fill:green;stroke:black;stroke-width:1" />
<text x="736" y="1030" font-size="8" style="fill:white">-6.550104357409675, 43.17804303219015, 0.</text>
<rect x="660" y="1070" width="200" height="40" style="fill:white;stroke:black;stroke-width:1" />
<text x="670" y="1080" font-size="10" style="fill:blue">from</text>
<rect x="726" y="1070" width="137" height="40" style="fill:green;stroke:black;stroke-width:1" />
<text x="736" y="1080" font-size="8" style="fill:white">Cangas de Narcea</text>
<rect x="660" y="1120" width="200" height="40" style="fill:white;stroke:black;stroke-width:1" />
<text x="670" y="1130" font-size="10" style="fill:blue">fromCoords</text>
<rect x="726" y="1120" width="137" height="40" style="fill:green;stroke:black;stroke-width:1" />
<text x="736" y="1130" font-size="8" style="fill:white">-6.550104357409675, 43.17804303219015, 0.</text>
<rect x="660" y="1170" width="200" height="40" style="fill:white;stroke:black;stroke-width:1" />
<text x="670" y="1180" font-size="10" style="fill:blue">photos</text>
<rect x="726" y="1170" width="137" height="40" style="fill:green;stroke:black;stroke-width:1" />
<text x="736" y="1180" font-size="8" style="fill:white">3.jpg
</text>
<rect x="660" y="1220" width="200" height="40" style="fill:white;stroke:black;stroke-width:1" />
<text x="670" y="1230" font-size="10" style="fill:blue">videos</text>
<rect x="726" y="1220" width="137" height="40" style="fill:green;stroke:black;stroke-width:1" />
<text x="736" y="1230" font-size="8" style="fill:white"></text>
<rect x="660" y="1270" width="200" height="40" style="fill:white;stroke:black;stroke-width:1" />
<text x="670" y="1280" font-size="10" style="fill:blue">comments</text>
<rect x="726" y="1270" width="137" height="40" style="fill:green;stroke:black;stroke-width:1" />
<text x="736" y="1280" font-size="8" style="fill:white">Hola me llamo Benemérito
</text>
<rect x="220" y="1370" width="200" height="40" style="fill:white;stroke:black;stroke-width:1" />
<text x="230" y="1380" font-size="10" style="fill:blue">persona</text>
<text x="230" y="1390" font-size="8" style="fill:black">nombre: Melito</text>
<text x="230" y="1400" font-size="8" style="fill:black">apellidos: Sacamoco Parahoy</text>
<rect x="440" y="1370" width="200" height="40" style="fill:white;stroke:black;stroke-width:1" />
<text x="450" y="1380" font-size="10" style="fill:blue">data</text>
<rect x="660" y="1370" width="200" height="40" style="fill:white;stroke:black;stroke-width:1" />
<text x="670" y="1380" font-size="10" style="fill:blue">bornDate</text>
<rect x="726" y="1370" width="137" height="40" style="fill:green;stroke:black;stroke-width:1" />
<text x="736" y="1380" font-size="8" style="fill:white">2011-06-04</text>
<rect x="660" y="1420" width="200" height="40" style="fill:white;stroke:black;stroke-width:1" />
<text x="670" y="1430" font-size="10" style="fill:blue">bornPlace</text>
<rect x="726" y="1420" width="137" height="40" style="fill:green;stroke:black;stroke-width:1" />
<text x="736" y="1430" font-size="8" style="fill:white">Chilecito, Argentina</text>
<rect x="660" y="1470" width="200" height="40" style="fill:white;stroke:black;stroke-width:1" />
<text x="670" y="1480" font-size="10" style="fill:blue">bornCoords</text>
<rect x="726" y="1470" width="137" height="40" style="fill:green;stroke:black;stroke-width:1" />
<text x="736" y="1480" font-size="8" style="fill:white">-67.496638235799, -29.157483656699927, 0.</text>
<rect x="660" y="1520" width="200" height="40" style="fill:white;stroke:black;stroke-width:1" />
<text x="670" y="1530" font-size="10" style="fill:blue">from</text>
<rect x="726" y="1520" width="137" height="40" style="fill:green;stroke:black;stroke-width:1" />
<text x="736" y="1530" font-size="8" style="fill:white">Bilbao</text>
<rect x="660" y="1570" width="200" height="40" style="fill:white;stroke:black;stroke-width:1" />
<text x="670" y="1580" font-size="10" style="fill:blue">fromCoords</text>
<rect x="726" y="1570" width="137" height="40" style="fill:green;stroke:black;stroke-width:1" />
<text x="736" y="1580" font-size="8" style="fill:white">-2.934252728632616, 43.266802198075716, 0.</text>
<rect x="660" y="1620" width="200" height="40" style="fill:white;stroke:black;stroke-width:1" />
<text x="670" y="1630" font-size="10" style="fill:blue">photos</text>
<rect x="726" y="1620" width="137" height="40" style="fill:green;stroke:black;stroke-width:1" />
<text x="736" y="1630" font-size="8" style="fill:white"></text>
<rect x="660" y="1670" width="200" height="40" style="fill:white;stroke:black;stroke-width:1" />
<text x="670" y="1680" font-size="10" style="fill:blue">videos</text>
<rect x="726" y="1670" width="137" height="40" style="fill:green;stroke:black;stroke-width:1" />
<text x="736" y="1680" font-size="8" style="fill:white"></text>
<rect x="660" y="1720" width="200" height="40" style="fill:white;stroke:black;stroke-width:1" />
<text x="670" y="1730" font-size="10" style="fill:blue">comments</text>
<rect x="726" y="1720" width="137" height="40" style="fill:green;stroke:black;stroke-width:1" />
<text x="736" y="1730" font-size="8" style="fill:white">Hola me llamo Melito
</text>
<rect x="220" y="1820" width="200" height="40" style="fill:white;stroke:black;stroke-width:1" />
<text x="230" y="1830" font-size="10" style="fill:blue">persona</text>
<text x="230" y="1840" font-size="8" style="fill:black">nombre: Tomás</text>
<text x="230" y="1850" font-size="8" style="fill:black">apellidos: Socorro Del Pozo</text>
<rect x="440" y="1820" width="200" height="40" style="fill:white;stroke:black;stroke-width:1" />
<text x="450" y="1830" font-size="10" style="fill:blue">data</text>
<rect x="660" y="1820" width="200" height="40" style="fill:white;stroke:black;stroke-width:1" />
<text x="670" y="1830" font-size="10" style="fill:blue">bornDate</text>
<rect x="726" y="1820" width="137" height="40" style="fill:green;stroke:black;stroke-width:1" />
<text x="736" y="1830" font-size="8" style="fill:white">2003-04-11</text>
<rect x="660" y="1870" width="200" height="40" style="fill:white;stroke:black;stroke-width:1" />
<text x="670" y="1880" font-size="10" style="fill:blue">bornPlace</text>
<rect x="726" y="1870" width="137" height="40" style="fill:green;stroke:black;stroke-width:1" />
<text x="736" y="1880" font-size="8" style="fill:white">Gijón</text>
<rect x="660" y="1920" width="200" height="40" style="fill:white;stroke:black;stroke-width:1" />
<text x="670" y="1930" font-size="10" style="fill:blue">bornCoords</text>
<rect x="726" y="1920" width="137" height="40" style="fill:green;stroke:black;stroke-width:1" />
<text x="736" y="1930" font-size="8" style="fill:white">-5.662457016986879, 43.545138651650305, 0.</text>
<rect x="660" y="1970" width="200" height="40" style="fill:white;stroke:black;stroke-width:1" />
<text x="670" y="1980" font-size="10" style="fill:blue">from</text>
<rect x="726" y="1970" width="137" height="40" style="fill:green;stroke:black;stroke-width:1" />
<text x="736" y="1980" font-size="8" style="fill:white">Gijón</text>
<rect x="660" y="2020" width="200" height="40" style="fill:white;stroke:black;stroke-width:1" />
<text x="670" y="2030" font-size="10" style="fill:blue">fromCoords</text>
<rect x="726" y="2020" width="137" height="40" style="fill:green;stroke:black;stroke-width:1" />
<text x="736" y="2030" font-size="8" style="fill:white">-5.662457016986879, 43.545138651650305, 0.</text>
<rect x="660" y="2070" width="200" height="40" style="fill:white;stroke:black;stroke-width:1" />
<text x="670" y="2080" font-size="10" style="fill:blue">photos</text>
<rect x="726" y="2070" width="137" height="40" style="fill:green;stroke:black;stroke-width:1" />
<text x="736" y="2080" font-size="8" style="fill:white">4.jpg
</text>
<rect x="660" y="2120" width="200" height="40" style="fill:white;stroke:black;stroke-width:1" />
<text x="670" y="2130" font-size="10" style="fill:blue">videos</text>
<rect x="726" y="2120" width="137" height="40" style="fill:green;stroke:black;stroke-width:1" />
<text x="736" y="2130" font-size="8" style="fill:white"></text>
<rect x="660" y="2170" width="200" height="40" style="fill:white;stroke:black;stroke-width:1" />
<text x="670" y="2180" font-size="10" style="fill:blue">comments</text>
<rect x="726" y="2170" width="137" height="40" style="fill:green;stroke:black;stroke-width:1" />
<text x="736" y="2180" font-size="8" style="fill:white">Hola me llamo Tomás
</text>
<rect x="120" y="2270" width="200" height="40" style="fill:white;stroke:black;stroke-width:1" />
<text x="130" y="2280" font-size="10" style="fill:blue">persona</text>
<text x="130" y="2290" font-size="8" style="fill:black">nombre: Deseado</text>
<text x="130" y="2300" font-size="8" style="fill:black">apellidos: Sin Tenedor</text>
<rect x="340" y="2270" width="200" height="40" style="fill:white;stroke:black;stroke-width:1" />
<text x="350" y="2280" font-size="10" style="fill:blue">data</text>
<rect x="560" y="2270" width="200" height="40" style="fill:white;stroke:black;stroke-width:1" />
<text x="570" y="2280" font-size="10" style="fill:blue">bornDate</text>
<rect x="626" y="2270" width="137" height="40" style="fill:green;stroke:black;stroke-width:1" />
<text x="636" y="2280" font-size="8" style="fill:white">1998-01-22</text>
<rect x="560" y="2320" width="200" height="40" style="fill:white;stroke:black;stroke-width:1" />
<text x="570" y="2330" font-size="10" style="fill:blue">bornPlace</text>
<rect x="626" y="2320" width="137" height="40" style="fill:green;stroke:black;stroke-width:1" />
<text x="636" y="2330" font-size="8" style="fill:white">Avilés</text>
<rect x="560" y="2370" width="200" height="40" style="fill:white;stroke:black;stroke-width:1" />
<text x="570" y="2380" font-size="10" style="fill:blue">bornCoords</text>
<rect x="626" y="2370" width="137" height="40" style="fill:green;stroke:black;stroke-width:1" />
<text x="636" y="2380" font-size="8" style="fill:white">-5.925058936037406, 43.559778064949036, 0.</text>
<rect x="560" y="2420" width="200" height="40" style="fill:white;stroke:black;stroke-width:1" />
<text x="570" y="2430" font-size="10" style="fill:blue">from</text>
<rect x="626" y="2420" width="137" height="40" style="fill:green;stroke:black;stroke-width:1" />
<text x="636" y="2430" font-size="8" style="fill:white">Avilés</text>
<rect x="560" y="2470" width="200" height="40" style="fill:white;stroke:black;stroke-width:1" />
<text x="570" y="2480" font-size="10" style="fill:blue">fromCoords</text>
<rect x="626" y="2470" width="137" height="40" style="fill:green;stroke:black;stroke-width:1" />
<text x="636" y="2480" font-size="8" style="fill:white">-5.925058936037406, 43.559778064949036, 0.</text>
<rect x="560" y="2520" width="200" height="40" style="fill:white;stroke:black;stroke-width:1" />
<text x="570" y="2530" font-size="10" style="fill:blue">photos</text>
<rect x="626" y="2520" width="137" height="40" style="fill:green;stroke:black;stroke-width:1" />
<text x="636" y="2530" font-size="8" style="fill:white"></text>
<rect x="560" y="2570" width="200" height="40" style="fill:white;stroke:black;stroke-width:1" />
<text x="570" y="2580" font-size="10" style="fill:blue">videos</text>
<rect x="626" y="2570" width="137" height="40" style="fill:green;stroke:black;stroke-width:1" />
<text x="636" y="2580" font-size="8" style="fill:white"></text>
<rect x="560" y="2620" width="200" height="40" style="fill:white;stroke:black;stroke-width:1" />
<text x="570" y="2630" font-size="10" style="fill:blue">comments</text>
<rect x="626" y="2620" width="137" height="40" style="fill:green;stroke:black;stroke-width:1" />
<text x="636" y="2630" font-size="8" style="fill:white">Hola me llamo Deseado
</text>
<rect x="220" y="2720" width="200" height="40" style="fill:white;stroke:black;stroke-width:1" />
<text x="230" y="2730" font-size="10" style="fill:blue">persona</text>
<text x="230" y="2740" font-size="8" style="fill:black">nombre: Dombina</text>
<text x="230" y="2750" font-size="8" style="fill:black">apellidos: García Garcia</text>
<rect x="440" y="2720" width="200" height="40" style="fill:white;stroke:black;stroke-width:1" />
<text x="450" y="2730" font-size="10" style="fill:blue">data</text>
<rect x="660" y="2720" width="200" height="40" style="fill:white;stroke:black;stroke-width:1" />
<text x="670" y="2730" font-size="10" style="fill:blue">bornDate</text>
<rect x="726" y="2720" width="137" height="40" style="fill:green;stroke:black;stroke-width:1" />
<text x="736" y="2730" font-size="8" style="fill:white">1987-06-03</text>
<rect x="660" y="2770" width="200" height="40" style="fill:white;stroke:black;stroke-width:1" />
<text x="670" y="2780" font-size="10" style="fill:blue">bornPlace</text>
<rect x="726" y="2770" width="137" height="40" style="fill:green;stroke:black;stroke-width:1" />
<text x="736" y="2780" font-size="8" style="fill:white">EEUU</text>
<rect x="660" y="2820" width="200" height="40" style="fill:white;stroke:black;stroke-width:1" />
<text x="670" y="2830" font-size="10" style="fill:blue">bornCoords</text>
<rect x="726" y="2820" width="137" height="40" style="fill:green;stroke:black;stroke-width:1" />
<text x="736" y="2830" font-size="8" style="fill:white">-94.43422808465574, 39.127292071569286, 0.</text>
<rect x="660" y="2870" width="200" height="40" style="fill:white;stroke:black;stroke-width:1" />
<text x="670" y="2880" font-size="10" style="fill:blue">from</text>
<rect x="726" y="2870" width="137" height="40" style="fill:green;stroke:black;stroke-width:1" />
<text x="736" y="2880" font-size="8" style="fill:white">Valencia</text>
<rect x="660" y="2920" width="200" height="40" style="fill:white;stroke:black;stroke-width:1" />
<text x="670" y="2930" font-size="10" style="fill:blue">fromCoords</text>
<rect x="726" y="2920" width="137" height="40" style="fill:green;stroke:black;stroke-width:1" />
<text x="736" y="2930" font-size="8" style="fill:white">-0.37490267716320597, 39.474049583642845, 0.</text>
<rect x="660" y="2970" width="200" height="40" style="fill:white;stroke:black;stroke-width:1" />
<text x="670" y="2980" font-size="10" style="fill:blue">photos</text>
<rect x="726" y="2970" width="137" height="40" style="fill:green;stroke:black;stroke-width:1" />
<text x="736" y="2980" font-size="8" style="fill:white">5.jpg
</text>
<rect x="660" y="3020" width="200" height="40" style="fill:white;stroke:black;stroke-width:1" />
<text x="670" y="3030" font-size="10" style="fill:blue">videos</text>
<rect x="726" y="3020" width="137" height="40" style="fill:green;stroke:black;stroke-width:1" />
<text x="736" y="3030" font-size="8" style="fill:white"></text>
<rect x="660" y="3070" width="200" height="40" style="fill:white;stroke:black;stroke-width:1" />
<text x="670" y="3080" font-size="10" style="fill:blue">comments</text>
<rect x="726" y="3070" width="137" height="40" style="fill:green;stroke:black;stroke-width:1" />
<text x="736" y="3080" font-size="8" style="fill:white">Hola me llamo Dombina
</text>
<rect x="220" y="3170" width="200" height="40" style="fill:white;stroke:black;stroke-width:1" />
<text x="230" y="3180" font-size="10" style="fill:blue">persona</text>
<text x="230" y="3190" font-size="8" style="fill:black">nombre: Nicomeda</text>
<text x="230" y="3200" font-size="8" style="fill:black">apellidos: Zuzunaga Garcia</text>
<rect x="440" y="3170" width="200" height="40" style="fill:white;stroke:black;stroke-width:1" />
<text x="450" y="3180" font-size="10" style="fill:blue">data</text>
<rect x="660" y="3170" width="200" height="40" style="fill:white;stroke:black;stroke-width:1" />
<text x="670" y="3180" font-size="10" style="fill:blue">bornDate</text>
<rect x="726" y="3170" width="137" height="40" style="fill:green;stroke:black;stroke-width:1" />
<text x="736" y="3180" font-size="8" style="fill:white">2001-06-07</text>
<rect x="660" y="3220" width="200" height="40" style="fill:white;stroke:black;stroke-width:1" />
<text x="670" y="3230" font-size="10" style="fill:blue">bornPlace</text>
<rect x="726" y="3220" width="137" height="40" style="fill:green;stroke:black;stroke-width:1" />
<text x="736" y="3230" font-size="8" style="fill:white">Barcia</text>
<rect x="660" y="3270" width="200" height="40" style="fill:white;stroke:black;stroke-width:1" />
<text x="670" y="3280" font-size="10" style="fill:blue">bornCoords</text>
<rect x="726" y="3270" width="137" height="40" style="fill:green;stroke:black;stroke-width:1" />
<text x="736" y="3280" font-size="8" style="fill:white">-6.523314120922505, 43.534093513630154, 0.</text>
<rect x="660" y="3320" width="200" height="40" style="fill:white;stroke:black;stroke-width:1" />
<text x="670" y="3330" font-size="10" style="fill:blue">from</text>
<rect x="726" y="3320" width="137" height="40" style="fill:green;stroke:black;stroke-width:1" />
<text x="736" y="3330" font-size="8" style="fill:white">Barcia</text>
<rect x="660" y="3370" width="200" height="40" style="fill:white;stroke:black;stroke-width:1" />
<text x="670" y="3380" font-size="10" style="fill:blue">fromCoords</text>
<rect x="726" y="3370" width="137" height="40" style="fill:green;stroke:black;stroke-width:1" />
<text x="736" y="3380" font-size="8" style="fill:white">-6.523314120922505, 43.534093513630154, 0.</text>
<rect x="660" y="3420" width="200" height="40" style="fill:white;stroke:black;stroke-width:1" />
<text x="670" y="3430" font-size="10" style="fill:blue">photos</text>
<rect x="726" y="3420" width="137" height="40" style="fill:green;stroke:black;stroke-width:1" />
<text x="736" y="3430" font-size="8" style="fill:white"></text>
<rect x="660" y="3470" width="200" height="40" style="fill:white;stroke:black;stroke-width:1" />
<text x="670" y="3480" font-size="10" style="fill:blue">videos</text>
<rect x="726" y="3470" width="137" height="40" style="fill:green;stroke:black;stroke-width:1" />
<text x="736" y="3480" font-size="8" style="fill:white">https://www.youtube.com/embed/sHkc83XA2dY
</text>
<rect x="660" y="3520" width="200" height="40" style="fill:white;stroke:black;stroke-width:1" />
<text x="670" y="3530" font-size="10" style="fill:blue">comments</text>
<rect x="726" y="3520" width="137" height="40" style="fill:green;stroke:black;stroke-width:1" />
<text x="736" y="3530" font-size="8" style="fill:white">Hola me llamo Nicomeda
</text>
<rect x="220" y="3620" width="200" height="40" style="fill:white;stroke:black;stroke-width:1" />
<text x="230" y="3630" font-size="10" style="fill:blue">persona</text>
<text x="230" y="3640" font-size="8" style="fill:black">nombre: Simplicia</text>
<text x="230" y="3650" font-size="8" style="fill:black">apellidos: Piesplanos Parraverde</text>
<rect x="440" y="3620" width="200" height="40" style="fill:white;stroke:black;stroke-width:1" />
<text x="450" y="3630" font-size="10" style="fill:blue">data</text>
<rect x="660" y="3620" width="200" height="40" style="fill:white;stroke:black;stroke-width:1" />
<text x="670" y="3630" font-size="10" style="fill:blue">bornDate</text>
<rect x="726" y="3620" width="137" height="40" style="fill:green;stroke:black;stroke-width:1" />
<text x="736" y="3630" font-size="8" style="fill:white">2005-09-12</text>
<rect x="660" y="3670" width="200" height="40" style="fill:white;stroke:black;stroke-width:1" />
<text x="670" y="3680" font-size="10" style="fill:blue">bornPlace</text>
<rect x="726" y="3670" width="137" height="40" style="fill:green;stroke:black;stroke-width:1" />
<text x="736" y="3680" font-size="8" style="fill:white">Marruecos</text>
<rect x="660" y="3720" width="200" height="40" style="fill:white;stroke:black;stroke-width:1" />
<text x="670" y="3730" font-size="10" style="fill:blue">bornCoords</text>
<rect x="726" y="3720" width="137" height="40" style="fill:green;stroke:black;stroke-width:1" />
<text x="736" y="3730" font-size="8" style="fill:white">-6.840077544207857, 33.96109225832617, 0.</text>
<rect x="660" y="3770" width="200" height="40" style="fill:white;stroke:black;stroke-width:1" />
<text x="670" y="3780" font-size="10" style="fill:blue">from</text>
<rect x="726" y="3770" width="137" height="40" style="fill:green;stroke:black;stroke-width:1" />
<text x="736" y="3780" font-size="8" style="fill:white">Aragón</text>
<rect x="660" y="3820" width="200" height="40" style="fill:white;stroke:black;stroke-width:1" />
<text x="670" y="3830" font-size="10" style="fill:blue">fromCoords</text>
<rect x="726" y="3820" width="137" height="40" style="fill:green;stroke:black;stroke-width:1" />
<text x="736" y="3830" font-size="8" style="fill:white">-0.9539386458745364, 41.61949255585056, 0.</text>
<rect x="660" y="3870" width="200" height="40" style="fill:white;stroke:black;stroke-width:1" />
<text x="670" y="3880" font-size="10" style="fill:blue">photos</text>
<rect x="726" y="3870" width="137" height="40" style="fill:green;stroke:black;stroke-width:1" />
<text x="736" y="3880" font-size="8" style="fill:white"></text>
<rect x="660" y="3920" width="200" height="40" style="fill:white;stroke:black;stroke-width:1" />
<text x="670" y="3930" font-size="10" style="fill:blue">videos</text>
<rect x="726" y="3920" width="137" height="40" style="fill:green;stroke:black;stroke-width:1" />
<text x="736" y="3930" font-size="8" style="fill:white"></text>
<rect x="660" y="3970" width="200" height="40" style="fill:white;stroke:black;stroke-width:1" />
<text x="670" y="3980" font-size="10" style="fill:blue">comments</text>
<rect x="726" y="3970" width="137" height="40" style="fill:green;stroke:black;stroke-width:1" />
<text x="736" y="3980" font-size="8" style="fill:white">Hola me llamo Simplicia
</text>
<rect x="120" y="4070" width="200" height="40" style="fill:white;stroke:black;stroke-width:1" />
<text x="130" y="4080" font-size="10" style="fill:blue">persona</text>
<text x="130" y="4090" font-size="8" style="fill:black">nombre: Vitores</text>
<text x="130" y="4100" font-size="8" style="fill:black">apellidos: Feo Alcoholado</text>
<rect x="340" y="4070" width="200" height="40" style="fill:white;stroke:black;stroke-width:1" />
<text x="350" y="4080" font-size="10" style="fill:blue">data</text>
<rect x="560" y="4070" width="200" height="40" style="fill:white;stroke:black;stroke-width:1" />
<text x="570" y="4080" font-size="10" style="fill:blue">bornDate</text>
<rect x="626" y="4070" width="137" height="40" style="fill:green;stroke:black;stroke-width:1" />
<text x="636" y="4080" font-size="8" style="fill:white">2012-12-08</text>
<rect x="560" y="4120" width="200" height="40" style="fill:white;stroke:black;stroke-width:1" />
<text x="570" y="4130" font-size="10" style="fill:blue">bornPlace</text>
<rect x="626" y="4120" width="137" height="40" style="fill:green;stroke:black;stroke-width:1" />
<text x="636" y="4130" font-size="8" style="fill:white">Cadavedo</text>
<rect x="560" y="4170" width="200" height="40" style="fill:white;stroke:black;stroke-width:1" />
<text x="570" y="4180" font-size="10" style="fill:blue">bornCoords</text>
<rect x="626" y="4170" width="137" height="40" style="fill:green;stroke:black;stroke-width:1" />
<text x="636" y="4180" font-size="8" style="fill:white">-6.387731889748422, 43.54602659970272, 0.</text>
<rect x="560" y="4220" width="200" height="40" style="fill:white;stroke:black;stroke-width:1" />
<text x="570" y="4230" font-size="10" style="fill:blue">from</text>
<rect x="626" y="4220" width="137" height="40" style="fill:green;stroke:black;stroke-width:1" />
<text x="636" y="4230" font-size="8" style="fill:white">Cadavedo</text>
<rect x="560" y="4270" width="200" height="40" style="fill:white;stroke:black;stroke-width:1" />
<text x="570" y="4280" font-size="10" style="fill:blue">fromCoords</text>
<rect x="626" y="4270" width="137" height="40" style="fill:green;stroke:black;stroke-width:1" />
<text x="636" y="4280" font-size="8" style="fill:white">-6.387731889748422, 43.54602659970272, 0.</text>
<rect x="560" y="4320" width="200" height="40" style="fill:white;stroke:black;stroke-width:1" />
<text x="570" y="4330" font-size="10" style="fill:blue">photos</text>
<rect x="626" y="4320" width="137" height="40" style="fill:green;stroke:black;stroke-width:1" />
<text x="636" y="4330" font-size="8" style="fill:white"></text>
<rect x="560" y="4370" width="200" height="40" style="fill:white;stroke:black;stroke-width:1" />
<text x="570" y="4380" font-size="10" style="fill:blue">videos</text>
<rect x="626" y="4370" width="137" height="40" style="fill:green;stroke:black;stroke-width:1" />
<text x="636" y="4380" font-size="8" style="fill:white"></text>
<rect x="560" y="4420" width="200" height="40" style="fill:white;stroke:black;stroke-width:1" />
<text x="570" y="4430" font-size="10" style="fill:blue">comments</text>
<rect x="626" y="4420" width="137" height="40" style="fill:green;stroke:black;stroke-width:1" />
<text x="636" y="4430" font-size="8" style="fill:white">Hola me llamo Vitores
</text>
<rect x="220" y="4520" width="200" height="40" style="fill:white;stroke:black;stroke-width:1" />
<text x="230" y="4530" font-size="10" style="fill:blue">persona</text>
<text x="230" y="4540" font-size="8" style="fill:black">nombre: Armelinda</text>
<text x="230" y="4550" font-size="8" style="fill:black">apellidos: Víbora Sorda</text>
<rect x="440" y="4520" width="200" height="40" style="fill:white;stroke:black;stroke-width:1" />
<text x="450" y="4530" font-size="10" style="fill:blue">data</text>
<rect x="660" y="4520" width="200" height="40" style="fill:white;stroke:black;stroke-width:1" />
<text x="670" y="4530" font-size="10" style="fill:blue">bornDate</text>
<rect x="726" y="4520" width="137" height="40" style="fill:green;stroke:black;stroke-width:1" />
<text x="736" y="4530" font-size="8" style="fill:white">1996-11-20</text>
<rect x="660" y="4570" width="200" height="40" style="fill:white;stroke:black;stroke-width:1" />
<text x="670" y="4580" font-size="10" style="fill:blue">bornPlace</text>
<rect x="726" y="4570" width="137" height="40" style="fill:green;stroke:black;stroke-width:1" />
<text x="736" y="4580" font-size="8" style="fill:white">Navelgas</text>
<rect x="660" y="4620" width="200" height="40" style="fill:white;stroke:black;stroke-width:1" />
<text x="670" y="4630" font-size="10" style="fill:blue">bornCoords</text>
<rect x="726" y="4620" width="137" height="40" style="fill:green;stroke:black;stroke-width:1" />
<text x="736" y="4630" font-size="8" style="fill:white">-6.5451999999999995, 43.404795715061766, 0.</text>
<rect x="660" y="4670" width="200" height="40" style="fill:white;stroke:black;stroke-width:1" />
<text x="670" y="4680" font-size="10" style="fill:blue">from</text>
<rect x="726" y="4670" width="137" height="40" style="fill:green;stroke:black;stroke-width:1" />
<text x="736" y="4680" font-size="8" style="fill:white">Navelgas</text>
<rect x="660" y="4720" width="200" height="40" style="fill:white;stroke:black;stroke-width:1" />
<text x="670" y="4730" font-size="10" style="fill:blue">fromCoords</text>
<rect x="726" y="4720" width="137" height="40" style="fill:green;stroke:black;stroke-width:1" />
<text x="736" y="4730" font-size="8" style="fill:white">-6.5451999999999995, 43.404795715061766, 0.</text>
<rect x="660" y="4770" width="200" height="40" style="fill:white;stroke:black;stroke-width:1" />
<text x="670" y="4780" font-size="10" style="fill:blue">photos</text>
<rect x="726" y="4770" width="137" height="40" style="fill:green;stroke:black;stroke-width:1" />
<text x="736" y="4780" font-size="8" style="fill:white"></text>
<rect x="660" y="4820" width="200" height="40" style="fill:white;stroke:black;stroke-width:1" />
<text x="670" y="4830" font-size="10" style="fill:blue">videos</text>
<rect x="726" y="4820" width="137" height="40" style="fill:green;stroke:black;stroke-width:1" />
<text x="736" y="4830" font-size="8" style="fill:white"></text>
<rect x="660" y="4870" width="200" height="40" style="fill:white;stroke:black;stroke-width:1" />
<text x="670" y="4880" font-size="10" style="fill:blue">comments</text>
<rect x="726" y="4870" width="137" height="40" style="fill:green;stroke:black;stroke-width:1" />
<text x="736" y="4880" font-size="8" style="fill:white">Hola me llamo Armelinda
</text>
<rect x="220" y="4970" width="200" height="40" style="fill:white;stroke:black;stroke-width:1" />
<text x="230" y="4980" font-size="10" style="fill:blue">persona</text>
<text x="230" y="4990" font-size="8" style="fill:black">nombre: Tesifonte</text>
<text x="230" y="5000" font-size="8" style="fill:black">apellidos: Sin Fajardo</text>
<rect x="440" y="4970" width="200" height="40" style="fill:white;stroke:black;stroke-width:1" />
<text x="450" y="4980" font-size="10" style="fill:blue">data</text>
<rect x="660" y="4970" width="200" height="40" style="fill:white;stroke:black;stroke-width:1" />
<text x="670" y="4980" font-size="10" style="fill:blue">bornDate</text>
<rect x="726" y="4970" width="137" height="40" style="fill:green;stroke:black;stroke-width:1" />
<text x="736" y="4980" font-size="8" style="fill:white">2001-06-02</text>
<rect x="660" y="5020" width="200" height="40" style="fill:white;stroke:black;stroke-width:1" />
<text x="670" y="5030" font-size="10" style="fill:blue">bornPlace</text>
<rect x="726" y="5020" width="137" height="40" style="fill:green;stroke:black;stroke-width:1" />
<text x="736" y="5030" font-size="8" style="fill:white">Barcelona</text>
<rect x="660" y="5070" width="200" height="40" style="fill:white;stroke:black;stroke-width:1" />
<text x="670" y="5080" font-size="10" style="fill:blue">bornCoords</text>
<rect x="726" y="5070" width="137" height="40" style="fill:green;stroke:black;stroke-width:1" />
<text x="736" y="5080" font-size="8" style="fill:white">2.1313203730163597, 41.388083838141604, 0.</text>
<rect x="660" y="5120" width="200" height="40" style="fill:white;stroke:black;stroke-width:1" />
<text x="670" y="5130" font-size="10" style="fill:blue">from</text>
<rect x="726" y="5120" width="137" height="40" style="fill:green;stroke:black;stroke-width:1" />
<text x="736" y="5130" font-size="8" style="fill:white">Barcelona</text>
<rect x="660" y="5170" width="200" height="40" style="fill:white;stroke:black;stroke-width:1" />
<text x="670" y="5180" font-size="10" style="fill:blue">fromCoords</text>
<rect x="726" y="5170" width="137" height="40" style="fill:green;stroke:black;stroke-width:1" />
<text x="736" y="5180" font-size="8" style="fill:white">2.1313203730163597, 41.388083838141604, 0.</text>
<rect x="660" y="5220" width="200" height="40" style="fill:white;stroke:black;stroke-width:1" />
<text x="670" y="5230" font-size="10" style="fill:blue">photos</text>
<rect x="726" y="5220" width="137" height="40" style="fill:green;stroke:black;stroke-width:1" />
<text x="736" y="5230" font-size="8" style="fill:white"></text>
<rect x="660" y="5270" width="200" height="40" style="fill:white;stroke:black;stroke-width:1" />
<text x="670" y="5280" font-size="10" style="fill:blue">videos</text>
<rect x="726" y="5270" width="137" height="40" style="fill:green;stroke:black;stroke-width:1" />
<text x="736" y="5280" font-size="8" style="fill:white"></text>
<rect x="660" y="5320" width="200" height="40" style="fill:white;stroke:black;stroke-width:1" />
<text x="670" y="5330" font-size="10" style="fill:blue">comments</text>
<rect x="726" y="5320" width="137" height="40" style="fill:green;stroke:black;stroke-width:1" />
<text x="736" y="5330" font-size="8" style="fill:white">Hola me llamo Tesifonte
</text>
<rect x="220" y="5420" width="200" height="40" style="fill:white;stroke:black;stroke-width:1" />
<text x="230" y="5430" font-size="10" style="fill:blue">persona</text>
<text x="230" y="5440" font-size="8" style="fill:black">nombre: Galán</text>
<text x="230" y="5450" font-size="8" style="fill:black">apellidos: Anacleto Parahoy</text>
<rect x="440" y="5420" width="200" height="40" style="fill:white;stroke:black;stroke-width:1" />
<text x="450" y="5430" font-size="10" style="fill:blue">data</text>
<rect x="660" y="5420" width="200" height="40" style="fill:white;stroke:black;stroke-width:1" />
<text x="670" y="5430" font-size="10" style="fill:blue">bornDate</text>
<rect x="726" y="5420" width="137" height="40" style="fill:green;stroke:black;stroke-width:1" />
<text x="736" y="5430" font-size="8" style="fill:white">2002-03-09</text>
<rect x="660" y="5470" width="200" height="40" style="fill:white;stroke:black;stroke-width:1" />
<text x="670" y="5480" font-size="10" style="fill:blue">bornPlace</text>
<rect x="726" y="5470" width="137" height="40" style="fill:green;stroke:black;stroke-width:1" />
<text x="736" y="5480" font-size="8" style="fill:white">Madrid</text>
<rect x="660" y="5520" width="200" height="40" style="fill:white;stroke:black;stroke-width:1" />
<text x="670" y="5530" font-size="10" style="fill:blue">bornCoords</text>
<rect x="726" y="5520" width="137" height="40" style="fill:green;stroke:black;stroke-width:1" />
<text x="736" y="5530" font-size="8" style="fill:white">-3.63146727116394, 40.40921803167939, 0.</text>
<rect x="660" y="5570" width="200" height="40" style="fill:white;stroke:black;stroke-width:1" />
<text x="670" y="5580" font-size="10" style="fill:blue">from</text>
<rect x="726" y="5570" width="137" height="40" style="fill:green;stroke:black;stroke-width:1" />
<text x="736" y="5580" font-size="8" style="fill:white">Madrid</text>
<rect x="660" y="5620" width="200" height="40" style="fill:white;stroke:black;stroke-width:1" />
<text x="670" y="5630" font-size="10" style="fill:blue">fromCoords</text>
<rect x="726" y="5620" width="137" height="40" style="fill:green;stroke:black;stroke-width:1" />
<text x="736" y="5630" font-size="8" style="fill:white">-3.63146727116394, 40.40921803167939, 0.</text>
<rect x="660" y="5670" width="200" height="40" style="fill:white;stroke:black;stroke-width:1" />
<text x="670" y="5680" font-size="10" style="fill:blue">photos</text>
<rect x="726" y="5670" width="137" height="40" style="fill:green;stroke:black;stroke-width:1" />
<text x="736" y="5680" font-size="8" style="fill:white"></text>
<rect x="660" y="5720" width="200" height="40" style="fill:white;stroke:black;stroke-width:1" />
<text x="670" y="5730" font-size="10" style="fill:blue">videos</text>
<rect x="726" y="5720" width="137" height="40" style="fill:green;stroke:black;stroke-width:1" />
<text x="736" y="5730" font-size="8" style="fill:white">https://www.youtube.com/embed/3wFHOYGWKPc
</text>
<rect x="660" y="5770" width="200" height="40" style="fill:white;stroke:black;stroke-width:1" />
<text x="670" y="5780" font-size="10" style="fill:blue">comments</text>
<rect x="726" y="5770" width="137" height="40" style="fill:green;stroke:black;stroke-width:1" />
<text x="736" y="5780" font-size="8" style="fill:white">Hola me llamo Galán
</text>
</svg>